HIERARCHY
ROOT Hips
{
 OFFSET 0.000000 0.000000 0.000000
 CHANNELS 6 Xposition Yposition Zposition Yrotation Xrotation Zrotation
 JOINT Chest
 {
  OFFSET 0.000000 9.585900 0.002600
  CHANNELS 3 Yrotation Xrotation Zrotation
  JOINT Chest2
  {
   OFFSET 0.000000 9.601200 -0.005300
   CHANNELS 3 Yrotation Xrotation Zrotation
   JOINT Chest3
   {
    OFFSET 0.000000 9.561800 0.000000
    CHANNELS 3 Yrotation Xrotation Zrotation
    JOINT Chest4
    {
     OFFSET 0.000000 9.552100 0.000000
     CHANNELS 3 Yrotation Xrotation Zrotation
     JOINT Neck
     {
      OFFSET 0.000000 14.453000 0.000000
      CHANNELS 3 Yrotation Xrotation Zrotation
      JOINT Head
      {
       OFFSET 0.000000 8.936500 -0.011300
       CHANNELS 3 Yrotation Xrotation Zrotation
       End Site
       {
        OFFSET 0.000000 17.073600 -0.006000
       }
      }
     }
     JOINT RightCollar
     {
      OFFSET -2.921100 9.558500 0.000000
      CHANNELS 3 Yrotation Xrotation Zrotation
      JOINT RightShoulder
      {
       OFFSET -13.519700 0.000000 0.000000
       CHANNELS 3 Yrotation Xrotation Zrotation
       JOINT RightElbow
       {
        OFFSET 0.000000 -29.696600 0.000000
        CHANNELS 3 Yrotation Xrotation Zrotation
        JOINT RightWrist
        {
         OFFSET 0.000000 -24.004700 0.000000
         CHANNELS 3 Yrotation Xrotation Zrotation
         End Site
         {
          OFFSET 0.000000 -17.728500 0.000000
         }
        }
       }
      }
     }
     JOINT LeftCollar
     {
      OFFSET 2.921100 9.558500 0.000000
      CHANNELS 3 Yrotation Xrotation Zrotation
      JOINT LeftShoulder
      {
       OFFSET 13.519700 0.000000 0.000000
       CHANNELS 3 Yrotation Xrotation Zrotation
       JOINT LeftElbow
       {
        OFFSET 0.000000 -29.696600 0.000000
        CHANNELS 3 Yrotation Xrotation Zrotation
        JOINT LeftWrist
        {
         OFFSET 0.000000 -24.004700 0.000000
         CHANNELS 3 Yrotation Xrotation Zrotation
         End Site
         {
          OFFSET 0.000000 -17.728500 0.000000
         }
        }
       }
      }
     }
    }
   }
  }
 }
 JOINT RightHip
 {
  OFFSET -7.771700 -0.012900 -0.001300
  CHANNELS 3 Yrotation Xrotation Zrotation
  JOINT RightKnee
  {
   OFFSET 0.000000 -40.869800 0.001200
   CHANNELS 3 Yrotation Xrotation Zrotation
   JOINT RightAnkle
   {
    OFFSET 0.000000 -39.717900 0.002100
    CHANNELS 3 Yrotation Xrotation Zrotation
    JOINT RightToe
    {
     OFFSET 0.000000 -4.965400 11.033500
     CHANNELS 3 Yrotation Xrotation Zrotation
     End Site
     {
      OFFSET 0.000000 -1.423100 5.872300
     }
    }
   }
  }
 }
 JOINT LeftHip
 {
  OFFSET 7.771700 -0.012900 -0.001300
  CHANNELS 3 Yrotation Xrotation Zrotation
  JOINT LeftKnee
  {
   OFFSET 0.000000 -40.869800 0.001200
   CHANNELS 3 Yrotation Xrotation Zrotation
   JOINT LeftAnkle
   {
    OFFSET 0.000000 -39.717900 0.002100
    CHANNELS 3 Yrotation Xrotation Zrotation
    JOINT LeftToe
    {
     OFFSET 0.000000 -4.965400 11.033500
     CHANNELS 3 Yrotation Xrotation Zrotation
     End Site
     {
      OFFSET 0.000000 -1.423100 5.872300
     }
    }
   }
  }
 }
}
MOTION
Frames: 15
Frame Time: 0.008333
-128.545476 57.454809 108.532926 173.723797 -46.010198 0.776629 4.447697 27.724387 4.359912 0.514860 4.939607 0.540050 0.827357 7.717187 0.837730 2.829927 22.331237 2.884068 0.828157 14.553757 -3.675270 2.945486 -8.681047 -7.229362 5.603983 0.659043 -0.749969 17.350119 -21.348329 -18.210078 146.644050 -74.102059 -103.267183 25.462532 -15.607669 -41.482191 -9.746995 0.368270 -2.428260 -0.611537 -16.361349 -2.277217 70.077382 -77.477825 -97.892667 -4.679133 9.002022 -8.164342 9.509680 -29.595757 -3.823035 -10.591562 64.747530 -8.671704 6.638728 27.509230 4.285997 -0.686434 -16.974329 2.834254 -6.854702 -27.390093 -1.098984 26.024388 61.920232 23.042694 -18.748743 8.857488 -4.570523 -0.456697 0.021107 -0.430910
-128.525779 57.442267 108.547785 173.787895 -45.961365 0.647924 4.442069 27.651408 4.435757 0.511590 4.901319 0.521916 0.831322 7.739064 0.851985 2.831163 22.323512 2.885018 0.826620 14.505272 -3.695175 2.951963 -8.717704 -7.247823 5.610600 0.691372 -0.735656 17.386896 -21.359896 -18.248621 146.653894 -73.974108 -103.302691 25.481245 -15.634016 -41.572093 -9.727511 0.369575 -2.435408 -0.624905 -16.335583 -2.260837 71.405583 -77.808055 -99.198731 -4.876827 9.111318 -8.476817 9.373869 -29.694461 -3.689019 -10.726309 64.734528 -8.855805 6.694826 27.615377 4.278415 -0.691158 -17.047165 2.856859 -6.913800 -27.444985 -1.047348 26.177513 61.922008 23.195414 -17.574685 8.963448 -4.498987 -0.012454 0.099643 -0.191704
-128.500214 57.435407 108.557040 173.815575 -45.957914 0.510298 4.483030 27.632949 4.563258 0.510753 4.893917 0.517857 0.828092 7.719774 0.843935 2.831996 22.316480 2.886246 0.830935 14.509850 -3.694936 2.932129 -8.804536 -7.280783 5.623293 0.700732 -0.736580 17.393710 -21.347067 -18.243945 146.664377 -73.835484 -103.324322 25.502013 -15.659129 -41.657846 -9.704617 0.368547 -2.445306 -0.640304 -16.419388 -2.219774 72.349435 -78.068313 -100.103225 -5.084552 9.221117 -8.801208 9.280961 -29.732280 -3.539669 -10.875414 64.708386 -9.006005 6.795931 27.688749 4.311691 -0.739288 -17.093211 2.853934 -6.973029 -27.447631 -0.952324 26.344557 61.918793 23.358299 -16.449444 9.070919 -4.393055 0.315543 0.142268 -0.029345
-128.488808 57.432854 108.559968 173.809599 -45.989366 0.476376 4.503860 27.640143 4.591215 0.512500 4.902720 0.525919 0.824667 7.699422 0.836226 2.831603 22.309992 2.888039 0.834035 14.515686 -3.695406 2.894792 -8.891492 -7.308787 5.631986 0.710092 -0.738399 17.444926 -21.349559 -18.277093 146.664629 -73.733213 -103.366380 25.519364 -15.685460 -41.738486 -9.680973 0.369440 -2.460001 -0.657728 -16.433768 -2.190873 73.643515 -78.353636 -101.359527 -5.297535 9.330277 -9.134630 9.259344 -29.718059 -3.482870 -11.015512 64.685818 -9.144696 6.865766 27.747720 4.324012 -0.771077 -17.129282 2.864524 -6.980358 -27.416942 -0.920926 26.476156 61.910649 23.494862 -15.814206 9.146812 -4.270399 0.379018 0.150224 -0.009689
-128.485883 57.429580 108.561921 173.795557 -46.016190 0.486452 4.508388 27.618262 4.558521 0.511596 4.895441 0.526423 0.830084 7.722528 0.853093 2.831059 22.303795 2.890881 0.791965 14.434442 -3.725348 2.883420 -8.896153 -7.308644 5.636628 0.701420 -0.759298 17.491731 -21.343758 -18.289403 146.657454 -73.634439 -103.402352 25.531272 -15.714991 -41.815934 -9.659175 0.366712 -2.480069 -0.666603 -16.481498 -2.153999 74.815202 -78.614132 -102.493596 -5.511347 9.436896 -9.474381 9.277401 -29.715120 -3.485514 -11.142694 64.681476 -9.257987 6.911220 27.836774 4.309019 -0.784227 -17.196385 2.890728 -6.946187 -27.400187 -0.923091 26.558808 61.913729 23.604756 -15.462249 9.212924 -4.167452 0.356812 0.143840 -0.022562
-128.480869 57.425787 108.563775 173.743128 -46.042027 0.496214 4.561588 27.624314 4.579810 0.511660 4.885325 0.522948 0.829745 7.717503 0.853843 2.831431 22.297626 2.894206 0.756675 14.388689 -3.741858 2.846242 -8.936002 -7.315444 5.634780 0.706770 -0.767636 17.531470 -21.348589 -18.306942 146.649274 -73.534064 -103.423720 25.543754 -15.745585 -41.888179 -9.632469 0.320626 -2.516585 -0.683809 -16.480903 -2.097210 76.056463 -78.867997 -103.698212 -5.722651 9.542162 -9.816765 9.384764 -29.718988 -3.521707 -11.254760 64.699126 -9.278089 7.031215 27.894314 4.372033 -0.874289 -17.247039 2.872525 -6.900021 -27.387864 -0.885273 26.626119 61.927245 23.699306 -15.287689 9.270104 -4.096545 0.259627 0.110238 -0.054327
-128.485883 57.421184 108.564873 173.753106 -46.065239 0.504485 4.548228 27.642747 4.560329 0.513117 4.861528 0.510051 0.829665 7.730285 0.863704 2.830562 22.275250 2.885824 0.723591 14.359442 -3.750404 2.789349 -8.992083 -7.320611 5.630353 0.719458 -0.765311 17.567525 -21.362599 -18.332952 146.649226 -73.445836 -103.447912 25.559947 -15.776534 -41.951487 -9.619204 0.318203 -2.525174 -0.682969 -16.500466 -2.069226 77.461258 -79.120857 -105.064430 -5.933972 9.644492 -10.156175 9.459731 -29.709644 -3.593508 -11.310447 64.714396 -9.261147 7.041153 27.929445 4.361875 -0.902441 -17.273633 2.890181 -6.894615 -27.375855 -0.896593 26.664083 61.933708 23.746637 -15.157312 9.319928 -4.024139 0.259004 0.118518 -0.059628
-128.493596 57.415173 108.566783 173.744413 -46.081687 0.525475 4.547623 27.633530 4.529758 0.515170 4.857085 0.506255 0.829068 7.744116 0.876418 2.831524 22.253630 2.873591 0.708478 14.363522 -3.741804 2.701309 -9.081152 -7.329608 5.623520 0.731324 -0.759319 17.590077 -21.370884 -18.344114 146.652411 -73.357688 -103.469381 25.579986 -15.809118 -42.004573 -9.608598 0.319965 -2.529464 -0.674236 -16.519886 -2.046266 78.918924 -79.363027 -106.483133 -6.145556 9.740627 -10.490025 9.566216 -29.705667 -3.673078 -11.431232 64.718002 -9.302569 7.101785 27.970553 4.387019 -0.923305 -17.302637 2.891331 -6.880209 -27.365196 -0.909125 26.704125 61.933189 23.792216 -15.098052 9.349865 -3.980395 0.259939 0.140411 -0.048268
-128.497911 57.408664 108.569538 173.717110 -46.099913 0.524524 4.584091 27.591340 4.515557 0.512116 4.891736 0.532751 0.833132 7.698415 0.849679 2.842976 22.282840 2.901381 0.692315 14.366376 -3.732055 2.605689 -9.171505 -7.334089 5.619858 0.753825 -0.742595 17.596489 -21.371145 -18.342572 146.640924 -73.255615 -103.475258 25.602420 -15.845622 -42.045964 -9.598763 0.325146 -2.533209 -0.659219 -16.542181 -2.028194 80.403476 -79.599110 -107.928358 -6.348019 9.830308 -10.815791 9.679455 -29.701915 -3.713428 -11.545353 64.710640 -9.339026 7.181203 28.014609 4.449266 -0.958456 -17.329355 2.877744 -6.872527 -27.347849 -0.885231 26.826631 61.923093 23.930525 -15.151353 9.338037 -4.000444 0.282580 0.173084 -0.015882
-128.507287 57.402642 108.571723 173.734342 -46.128120 0.509766 4.576337 27.604894 4.511280 0.511422 4.898175 0.537881 0.834794 7.680985 0.839254 2.846693 22.270806 2.896692 0.615522 14.285138 -3.757467 2.562845 -9.184049 -7.311050 5.615549 0.775625 -0.726406 17.612907 -21.392474 -18.371503 146.645733 -73.194269 -103.512386 25.623697 -15.885935 -42.072904 -9.591667 0.330995 -2.536808 -0.639750 -16.563483 -2.012928 81.929359 -79.829340 -109.410847 -6.535345 9.916600 -11.129309 9.783183 -29.687771 -3.785528 -11.611008 64.725636 -9.301056 7.186883 28.048548 4.435991 -0.948912 -17.355487 2.893474 -6.888955 -27.325514 -0.882849 26.857211 61.924701 23.962566 -15.142030 9.361361 -3.981859 0.272962 0.184685 -0.002258
-128.515835 57.396605 108.574662 173.764467 -46.162482 0.470981 4.567129 27.623310 4.524347 0.513938 4.881988 0.527781 0.833818 7.702617 0.855196 2.850386 22.243086 2.878111 0.558214 14.238047 -3.766930 2.493463 -9.227603 -7.295202 5.597689 0.785516 -0.717163 17.623657 -21.426757 -18.404480 146.670962 -73.159426 -103.560897 25.642431 -15.927172 -42.089608 -9.587626 0.336711 -2.537109 -0.627715 -16.568424 -1.997007 83.564727 -80.047373 -110.994052 -6.711452 9.997388 -11.425542 9.881031 -29.666688 -3.834737 -11.688151 64.727265 -9.282854 7.213254 28.105456 4.452847 -0.954799 -17.397861 2.906372 -6.923694 -27.305629 -0.864600 26.896223 61.936967 24.003062 -15.151373 9.399758 -3.966500 0.272042 0.160064 -0.007928
-128.526569 57.388362 108.580394 173.762343 -46.184195 0.460400 4.580710 27.609537 4.520788 0.515122 4.881365 0.528087 0.835738 7.701712 0.855885 2.856460 22.258967 2.891742 0.511377 14.192744 -3.783277 2.407300 -9.285725 -7.280047 5.582168 0.782588 -0.721417 17.628121 -21.420280 -18.386175 146.602687 -73.069131 -103.527280 25.599329 -15.956406 -42.081304 -9.582334 0.331366 -2.539945 -0.603076 -16.589366 -1.988717 85.128348 -80.243029 -112.514179 -6.881211 10.069809 -11.699169 10.015060 -29.661025 -3.893252 -11.713609 64.731010 -9.217284 7.211760 28.165668 4.468113 -0.956391 -17.438019 2.925188 -6.927701 -27.286525 -0.856709 26.923043 61.932010 24.041051 -15.180247 9.410448 -3.969468 0.290181 0.164818 -0.003934
-128.537426 57.378409 108.588786 173.765643 -46.197055 0.441775 4.603761 27.561841 4.507248 0.509397 4.904692 0.545583 0.849863 7.670216 0.831205 2.860965 22.303259 2.938271 0.487551 14.179945 -3.783044 2.297613 -9.368866 -7.273879 5.548081 0.770987 -0.755107 17.639935 -21.430134 -18.349947 146.551432 -73.013305 -103.511660 25.567540 -15.986939 -42.070356 -9.574738 0.321121 -2.548874 -0.574243 -16.614480 -1.975864 86.595776 -80.421686 -113.946283 -7.048219 10.136623 -11.947671 10.144397 -29.670204 -3.946650 -11.735810 64.735345 -9.154658 7.231442 28.246778 4.474843 -0.984506 -17.495622 2.970393 -6.934585 -27.282596 -0.845559 26.955703 61.931563 24.088399 -15.207536 9.429187 -3.973736 0.318641 0.193956 0.031934
-128.548132 57.369884 108.596872 173.774219 -46.226408 0.418425 4.610305 27.581264 4.524673 0.532876 4.850088 0.503390 0.843815 7.702834 0.855988 2.866760 22.302417 2.943495 0.429580 14.139537 -3.794272 2.222463 -9.411271 -7.246676 5.528947 0.786991 -0.752559 17.640853 -21.443378 -18.339347 146.516304 -72.962484 -103.514042 25.669250 -16.048081 -42.077070 -9.571562 0.318421 -2.551664 -0.565615 -16.611666 -1.954381 88.191052 -80.591430 -115.491744 -7.214632 10.201303 -12.181581 10.255840 -29.660408 -3.984128 -11.765575 64.733990 -9.111688 7.237229 28.324412 4.485449 -0.995295 -17.548701 3.004982 -6.940604 -27.266675 -0.852968 27.006898 61.929402 24.171011 -15.223283 9.457872 -3.971640 0.319881 0.179236 0.022876
-128.557894 57.359615 108.607852 173.787407 -46.244267 0.386687 4.626825 27.564141 4.533121 0.536379 4.851892 0.503158 0.842497 7.711690 0.862397 2.886660 22.273882 2.900758 0.370223 14.123407 -3.759569 2.145119 -9.453148 -7.215624 5.500242 0.820926 -0.696207 17.647299 -21.452932 -18.333859 146.456602 -72.919316 -103.497582 25.706573 -16.097224 -42.054465 -9.590471 0.363961 -2.495318 -0.562530 -16.609237 -1.945885 89.917860 -80.749852 -117.149166 -7.378186 10.265379 -12.415594 10.341681 -29.660332 -4.003474 -11.792846 64.726797 -9.085089 7.229677 28.382581 4.509637 -0.995655 -17.579967 3.020498 -6.955767 -27.254993 -0.849994 27.059735 61.906343 24.264065 -15.286096 9.481514 -4.011914 0.361366 0.190619 0.047868
